# xmcd
#
# Track frame offsets:
# 150
# 15051
# 36394
# 55405
# 75290
# 95743
# 110771
# 120985
# 138311
# 155640
# 182790
# 198410
# 208914
# 228647
#
# Disc length: 3244 seconds
#
# Revision: 0
# Processed by: cddbd v1.4PL0 Copyright (c) Steve Scherf et al.
# Submitted via: Audion 2.5.0 (http://www.panic.com/audion/)
#
DISCID=bd0caa0e
DTITLE=Mikes Blue Groove - Have a Good Time
DYEAR=1900
DGENRE=
TTITLE0=I Quit
TTITLE1=Sloppy Drunk
TTITLE2=Papas Boogie
TTITLE3=Tell Me Whats The reason
TTITLE4=Mad Bout Somethin
TTITLE5=Saint Or Sinner
TTITLE6=Young And Able
TTITLE7=Shake It
TTITLE8=Oh baby
TTITLE9=Bloody Murder
TTITLE10=Stop My Baby
TTITLE11=Have A Good Time
TTITLE12=Mikes Shuffle
TTITLE13=Cant Tear It Up Enuff
EXTD=
EXTT0=
EXTT1=
EXTT2=
EXTT3=
EXTT4=
EXTT5=
EXTT6=
EXTT7=
EXTT8=
EXTT9=
EXTT10=
EXTT11=
EXTT12=
EXTT13=
PLAYORDER=
